<svg xmlns="http://www.w3.org/2000/svg" viewBox="0 0 600 600" role="img"><rect width="600" height="600" fill="#101820"/><line x1="64.23" y1="568.12" x2="70.11" y2="558.58" stroke="#566879" stroke-width="20.04" stroke-linecap="round"/><line x1="70.11" y1="558.58" x2="78.15" y2="550.48" stroke="#566879" stroke-width="20.04" stroke-linecap="round"/><line x1="78.15" y1="550.48" x2="87.99" y2="544.24" stroke="#566879" stroke-width="20.04" stroke-linecap="round"/><line x1="87.99" y1="544.24" x2="99.21" y2="540.28" stroke="#566879" stroke-width="20.04" stroke-linecap="round"/><line x1="99.21" y1="540.28" x2="111.21" y2="538.90" stroke="#566879" stroke-width="20.04" stroke-linecap="round"/><line x1="111.21" y1="538.90" x2="123.45" y2="540.28" stroke="#566879" stroke-width="20.04" stroke-linecap="round"/><line x1="123.45" y1="540.28" x2="135.39" y2="544.42" stroke="#566879" stroke-width="20.04" stroke-linecap="round"/><line x1="135.39" y1="544.42" x2="146.25" y2="551.20" stroke="#566879" stroke-width="20.04" stroke-linecap="round"/><line x1="146.25" y1="551.20" x2="155.61" y2="560.44" stroke="#566879" stroke-width="20.04" stroke-linecap="round"/><line x1="155.61" y1="560.44" x2="162.81" y2="571.72" stroke="#566879" stroke-width="20.04" stroke-linecap="round"/><line x1="162.81" y1="571.72" x2="167.49" y2="584.50" stroke="#566879" stroke-width="20.04" stroke-linecap="round"/><line x1="167.49" y1="584.50" x2="169.35" y2="598.18" stroke="#566879" stroke-width="20.04" stroke-linecap="round"/><line x1="169.35" y1="598.18" x2="166.95" y2="614.74" stroke="#566879" stroke-width="20.04" stroke-linecap="round"/><line x1="292.89" y1="602.98" x2="289.95" y2="593.62" stroke="#566879" stroke-width="33.00" stroke-linecap="round"/><line x1="289.95" y1="593.62" x2="286.83" y2="585.34" stroke="#566879" stroke-width="33.00" stroke-linecap="round"/><line x1="286.83" y1="585.34" x2="283.53" y2="578.38" stroke="#566879" stroke-width="33.00" stroke-linecap="round"/><line x1="283.53" y1="578.38" x2="280.17" y2="572.80" stroke="#566879" stroke-width="33.00" stroke-linecap="round"/><line x1="280.17" y1="572.80" x2="276.87" y2="568.60" stroke="#566879" stroke-width="33.00" stroke-linecap="round"/><line x1="276.87" y1="568.60" x2="273.93" y2="566.02" stroke="#566879" stroke-width="33.00" stroke-linecap="round"/><line x1="273.93" y1="566.02" x2="271.41" y2="564.94" stroke="#566879" stroke-width="33.00" stroke-linecap="round"/><line x1="271.41" y1="564.94" x2="269.61" y2="565.36" stroke="#566879" stroke-width="33.00" stroke-linecap="round"/><line x1="269.61" y1="565.36" x2="268.71" y2="567.16" stroke="#566879" stroke-width="33.00" stroke-linecap="round"/><line x1="268.71" y1="567.16" x2="269.01" y2="570.22" stroke="#566879" stroke-width="33.00" stroke-linecap="round"/><line x1="269.01" y1="570.22" x2="270.63" y2="574.36" stroke="#566879" stroke-width="33.00" stroke-linecap="round"/><line x1="270.63" y1="574.36" x2="273.75" y2="579.22" stroke="#566879" stroke-width="33.00" stroke-linecap="round"/><line x1="273.75" y1="579.22" x2="278.43" y2="584.68" stroke="#566879" stroke-width="33.00" stroke-linecap="round"/><line x1="278.43" y1="584.68" x2="284.73" y2="590.32" stroke="#566879" stroke-width="33.00" stroke-linecap="round"/><line x1="284.73" y1="590.32" x2="292.53" y2="595.96" stroke="#566879" stroke-width="33.00" stroke-linecap="round"/><line x1="292.53" y1="595.96" x2="301.77" y2="601.30" stroke="#566879" stroke-width="33.00" stroke-linecap="round"/><line x1="484.71" y1="603.04" x2="496.89" y2="597.58" stroke="#566879" stroke-width="33.00" stroke-linecap="round"/><line x1="496.89" y1="597.58" x2="508.41" y2="591.28" stroke="#566879" stroke-width="33.00" stroke-linecap="round"/><line x1="508.41" y1="591.28" x2="518.97" y2="583.90" stroke="#566879" stroke-width="33.00" stroke-linecap="round"/><line x1="518.97" y1="583.90" x2="528.39" y2="575.56" stroke="#566879" stroke-width="33.00" stroke-linecap="round"/><line x1="528.39" y1="575.56" x2="536.43" y2="566.08" stroke="#566879" stroke-width="33.00" stroke-linecap="round"/><line x1="536.43" y1="566.08" x2="542.91" y2="555.52" stroke="#566879" stroke-width="33.00" stroke-linecap="round"/><line x1="542.91" y1="555.52" x2="547.65" y2="544.00" stroke="#566879" stroke-width="33.00" stroke-linecap="round"/><line x1="547.65" y1="544.00" x2="550.41" y2="531.76" stroke="#566879" stroke-width="33.00" stroke-linecap="round"/><line x1="550.41" y1="531.76" x2="551.19" y2="518.98" stroke="#566879" stroke-width="33.00" stroke-linecap="round"/><line x1="551.19" y1="518.98" x2="549.99" y2="505.96" stroke="#566879" stroke-width="33.00" stroke-linecap="round"/><line x1="549.99" y1="505.96" x2="546.99" y2="493.06" stroke="#566879" stroke-width="33.00" stroke-linecap="round"/><line x1="546.99" y1="493.06" x2="542.43" y2="480.46" stroke="#566879" stroke-width="33.00" stroke-linecap="round"/><line x1="542.43" y1="480.46" x2="536.67" y2="468.28" stroke="#566879" stroke-width="33.00" stroke-linecap="round"/><line x1="536.67" y1="468.28" x2="530.37" y2="456.46" stroke="#566879" stroke-width="33.00" stroke-linecap="round"/><line x1="530.37" y1="456.46" x2="524.43" y2="444.94" stroke="#566879" stroke-width="33.00" stroke-linecap="round"/><line x1="524.43" y1="444.94" x2="519.99" y2="433.24" stroke="#566879" stroke-width="33.00" stroke-linecap="round"/><line x1="519.99" y1="433.24" x2="518.49" y2="421.00" stroke="#566879" stroke-width="33.00" stroke-linecap="round"/><line x1="518.49" y1="421.00" x2="521.01" y2="408.22" stroke="#566879" stroke-width="33.00" stroke-linecap="round"/><line x1="521.01" y1="408.22" x2="527.55" y2="395.80" stroke="#566879" stroke-width="33.00" stroke-linecap="round"/><line x1="527.55" y1="395.80" x2="538.41" y2="382.66" stroke="#566879" stroke-width="33.00" stroke-linecap="round"/><line x1="538.41" y1="382.66" x2="549.75" y2="366.46" stroke="#566879" stroke-width="33.00" stroke-linecap="round"/><line x1="549.75" y1="366.46" x2="564.63" y2="349.60" stroke="#566879" stroke-width="33.00" stroke-linecap="round"/><line x1="564.63" y1="349.60" x2="583.95" y2="333.40" stroke="#566879" stroke-width="33.00" stroke-linecap="round"/><line x1="583.95" y1="333.40" x2="602.85" y2="316.72" stroke="#566879" stroke-width="33.00" stroke-linecap="round"/><line x1="328.95" y1="3.76" x2="335.43" y2="-7.28" stroke="#566879" stroke-width="24.24" stroke-linecap="round"/><line x1="302.25" y1="-2.36" x2="292.17" y2="7.60" stroke="#566879" stroke-width="24.24" stroke-linecap="round"/><line x1="292.17" y1="7.60" x2="282.93" y2="18.46" stroke="#566879" stroke-width="24.24" stroke-linecap="round"/><line x1="282.93" y1="18.46" x2="274.29" y2="29.92" stroke="#566879" stroke-width="24.24" stroke-linecap="round"/><line x1="274.29" y1="29.92" x2="263.43" y2="42.94" stroke="#566879" stroke-width="24.24" stroke-linecap="round"/><line x1="263.43" y1="42.94" x2="248.49" y2="55.96" stroke="#566879" stroke-width="24.24" stroke-linecap="round"/><line x1="248.49" y1="55.96" x2="230.55" y2="69.52" stroke="#566879" stroke-width="24.24" stroke-linecap="round"/><line x1="230.55" y1="69.52" x2="209.73" y2="83.68" stroke="#566879" stroke-width="24.24" stroke-linecap="round"/><line x1="209.73" y1="83.68" x2="188.25" y2="96.82" stroke="#566879" stroke-width="24.24" stroke-linecap="round"/><line x1="188.25" y1="96.82" x2="172.17" y2="101.50" stroke="#566879" stroke-width="24.24" stroke-linecap="round"/><line x1="324.69" y1="303.34" x2="326.49" y2="302.74" stroke="#566879" stroke-width="24.12" stroke-linecap="round"/><line x1="326.49" y1="302.74" x2="327.45" y2="300.94" stroke="#566879" stroke-width="24.12" stroke-linecap="round"/><line x1="327.45" y1="300.94" x2="327.51" y2="297.94" stroke="#566879" stroke-width="24.12" stroke-linecap="round"/><line x1="327.51" y1="297.94" x2="326.43" y2="294.10" stroke="#566879" stroke-width="24.12" stroke-linecap="round"/><line x1="326.43" y1="294.10" x2="324.21" y2="289.72" stroke="#566879" stroke-width="24.12" stroke-linecap="round"/><line x1="324.21" y1="289.72" x2="320.91" y2="285.22" stroke="#566879" stroke-width="24.12" stroke-linecap="round"/><line x1="320.91" y1="285.22" x2="316.47" y2="280.96" stroke="#566879" stroke-width="24.12" stroke-linecap="round"/><line x1="316.47" y1="280.96" x2="311.25" y2="277.48" stroke="#566879" stroke-width="24.12" stroke-linecap="round"/><line x1="311.25" y1="277.48" x2="305.37" y2="275.20" stroke="#566879" stroke-width="24.12" stroke-linecap="round"/><line x1="305.37" y1="275.20" x2="299.31" y2="274.48" stroke="#566879" stroke-width="24.12" stroke-linecap="round"/><line x1="299.31" y1="274.48" x2="293.43" y2="275.50" stroke="#566879" stroke-width="24.12" stroke-linecap="round"/><line x1="293.43" y1="275.50" x2="288.21" y2="278.44" stroke="#566879" stroke-width="24.12" stroke-linecap="round"/><line x1="288.21" y1="278.44" x2="284.07" y2="283.24" stroke="#566879" stroke-width="24.12" stroke-linecap="round"/><line x1="284.07" y1="283.24" x2="281.31" y2="289.90" stroke="#566879" stroke-width="24.12" stroke-linecap="round"/><line x1="281.31" y1="289.90" x2="280.29" y2="298.12" stroke="#566879" stroke-width="24.12" stroke-linecap="round"/><line x1="280.29" y1="298.12" x2="281.01" y2="307.66" stroke="#566879" stroke-width="24.12" stroke-linecap="round"/><line x1="281.01" y1="307.66" x2="283.59" y2="318.16" stroke="#566879" stroke-width="24.12" stroke-linecap="round"/><line x1="283.59" y1="318.16" x2="287.91" y2="329.20" stroke="#566879" stroke-width="24.12" stroke-linecap="round"/><line x1="287.91" y1="329.20" x2="293.73" y2="340.60" stroke="#566879" stroke-width="24.12" stroke-linecap="round"/><line x1="293.73" y1="340.60" x2="300.81" y2="351.94" stroke="#566879" stroke-width="24.12" stroke-linecap="round"/><line x1="300.81" y1="351.94" x2="308.91" y2="363.10" stroke="#566879" stroke-width="24.12" stroke-linecap="round"/><line x1="308.91" y1="363.10" x2="317.73" y2="373.90" stroke="#566879" stroke-width="24.12" stroke-linecap="round"/><line x1="317.73" y1="373.90" x2="327.21" y2="384.28" stroke="#566879" stroke-width="24.12" stroke-linecap="round"/><line x1="327.21" y1="384.28" x2="337.29" y2="394.18" stroke="#566879" stroke-width="24.12" stroke-linecap="round"/><line x1="337.29" y1="394.18" x2="347.79" y2="403.60" stroke="#566879" stroke-width="24.12" stroke-linecap="round"/><line x1="347.79" y1="403.60" x2="358.77" y2="412.42" stroke="#566879" stroke-width="24.12" stroke-linecap="round"/><line x1="358.77" y1="412.42" x2="370.17" y2="420.70" stroke="#566879" stroke-width="24.12" stroke-linecap="round"/><line x1="370.17" y1="420.70" x2="381.99" y2="428.44" stroke="#566879" stroke-width="24.12" stroke-linecap="round"/><line x1="381.99" y1="428.44" x2="393.99" y2="435.70" stroke="#566879" stroke-width="24.12" stroke-linecap="round"/><line x1="393.99" y1="435.70" x2="406.17" y2="442.42" stroke="#566879" stroke-width="24.12" stroke-linecap="round"/><line x1="406.17" y1="442.42" x2="418.41" y2="448.48" stroke="#566879" stroke-width="24.12" stroke-linecap="round"/><line x1="418.41" y1="448.48" x2="430.53" y2="453.52" stroke="#566879" stroke-width="24.12" stroke-linecap="round"/><line x1="430.53" y1="453.52" x2="442.53" y2="456.82" stroke="#566879" stroke-width="24.12" stroke-linecap="round"/><line x1="442.53" y1="456.82" x2="454.11" y2="457.48" stroke="#566879" stroke-width="24.12" stroke-linecap="round"/><line x1="454.11" y1="457.48" x2="464.73" y2="454.54" stroke="#566879" stroke-width="24.12" stroke-linecap="round"/><line x1="464.73" y1="454.54" x2="473.25" y2="447.34" stroke="#566879" stroke-width="24.12" stroke-linecap="round"/><line x1="473.25" y1="447.34" x2="477.87" y2="436.18" stroke="#566879" stroke-width="24.12" stroke-linecap="round"/><line x1="477.87" y1="436.18" x2="474.93" y2="420.58" stroke="#566879" stroke-width="24.12" stroke-linecap="round"/><line x1="474.93" y1="420.58" x2="460.95" y2="406.78" stroke="#566879" stroke-width="24.12" stroke-linecap="round"/><line x1="460.95" y1="406.78" x2="440.43" y2="397.54" stroke="#566879" stroke-width="24.12" stroke-linecap="round"/><line x1="440.43" y1="397.54" x2="415.77" y2="402.52" stroke="#566879" stroke-width="24.12" stroke-linecap="round"/><line x1="415.77" y1="402.52" x2="394.95" y2="416.74" stroke="#566879" stroke-width="24.12" stroke-linecap="round"/><line x1="394.95" y1="416.74" x2="369.45" y2="421.66" stroke="#566879" stroke-width="24.12" stroke-linecap="round"/><line x1="539.61" y1="139.00" x2="544.29" y2="142.54" stroke="#566879" stroke-width="40.68" stroke-linecap="round"/><line x1="544.29" y1="142.54" x2="549.75" y2="145.72" stroke="#566879" stroke-width="40.68" stroke-linecap="round"/><line x1="549.75" y1="145.72" x2="555.87" y2="148.42" stroke="#566879" stroke-width="40.68" stroke-linecap="round"/><line x1="555.87" y1="148.42" x2="562.59" y2="150.58" stroke="#566879" stroke-width="40.68" stroke-linecap="round"/><line x1="562.59" y1="150.58" x2="569.91" y2="152.26" stroke="#566879" stroke-width="40.68" stroke-linecap="round"/><line x1="569.91" y1="152.26" x2="577.71" y2="153.40" stroke="#566879" stroke-width="40.68" stroke-linecap="round"/><line x1="577.71" y1="153.40" x2="586.05" y2="154.00" stroke="#566879" stroke-width="40.68" stroke-linecap="round"/><line x1="586.05" y1="154.00" x2="594.75" y2="154.06" stroke="#566879" stroke-width="40.68" stroke-linecap="round"/><line x1="594.75" y1="154.06" x2="603.87" y2="153.52" stroke="#566879" stroke-width="40.68" stroke-linecap="round"/><line x1="428.61" y1="162.76" x2="430.89" y2="173.44" stroke="#566879" stroke-width="36.60" stroke-linecap="round"/><line x1="430.89" y1="173.44" x2="433.65" y2="183.76" stroke="#566879" stroke-width="36.60" stroke-linecap="round"/><line x1="433.65" y1="183.76" x2="436.71" y2="193.84" stroke="#566879" stroke-width="36.60" stroke-linecap="round"/><line x1="436.71" y1="193.84" x2="440.19" y2="203.50" stroke="#566879" stroke-width="36.60" stroke-linecap="round"/><line x1="440.19" y1="203.50" x2="443.85" y2="212.74" stroke="#566879" stroke-width="36.60" stroke-linecap="round"/><line x1="443.85" y1="212.74" x2="447.63" y2="221.50" stroke="#566879" stroke-width="36.60" stroke-linecap="round"/><line x1="447.63" y1="221.50" x2="451.53" y2="229.78" stroke="#566879" stroke-width="36.60" stroke-linecap="round"/><line x1="451.53" y1="229.78" x2="455.37" y2="237.46" stroke="#566879" stroke-width="36.60" stroke-linecap="round"/><line x1="455.37" y1="237.46" x2="459.15" y2="244.48" stroke="#566879" stroke-width="36.60" stroke-linecap="round"/><line x1="459.15" y1="244.48" x2="462.63" y2="250.84" stroke="#566879" stroke-width="36.60" stroke-linecap="round"/><line x1="462.63" y1="250.84" x2="465.87" y2="256.48" stroke="#566879" stroke-width="36.60" stroke-linecap="round"/><line x1="465.87" y1="256.48" x2="468.75" y2="261.28" stroke="#566879" stroke-width="36.60" stroke-linecap="round"/><line x1="468.75" y1="261.28" x2="471.21" y2="265.30" stroke="#566879" stroke-width="36.60" stroke-linecap="round"/><line x1="471.21" y1="265.30" x2="473.25" y2="268.42" stroke="#566879" stroke-width="36.60" stroke-linecap="round"/><line x1="473.25" y1="268.42" x2="474.75" y2="270.58" stroke="#566879" stroke-width="36.60" stroke-linecap="round"/><line x1="474.75" y1="270.58" x2="475.77" y2="271.72" stroke="#566879" stroke-width="36.60" stroke-linecap="round"/><line x1="475.77" y1="271.72" x2="476.31" y2="271.90" stroke="#566879" stroke-width="36.60" stroke-linecap="round"/><line x1="476.31" y1="271.90" x2="476.37" y2="271.00" stroke="#566879" stroke-width="36.60" stroke-linecap="round"/><line x1="476.37" y1="271.00" x2="476.07" y2="269.02" stroke="#566879" stroke-width="36.60" stroke-linecap="round"/><line x1="476.07" y1="269.02" x2="475.41" y2="265.96" stroke="#566879" stroke-width="36.60" stroke-linecap="round"/><line x1="475.41" y1="265.96" x2="474.51" y2="261.82" stroke="#566879" stroke-width="36.60" stroke-linecap="round"/><line x1="474.51" y1="261.82" x2="473.37" y2="256.60" stroke="#566879" stroke-width="36.60" stroke-linecap="round"/><line x1="473.37" y1="256.60" x2="472.17" y2="250.36" stroke="#566879" stroke-width="36.60" stroke-linecap="round"/><line x1="472.17" y1="250.36" x2="470.91" y2="243.10" stroke="#566879" stroke-width="36.60" stroke-linecap="round"/><line x1="470.91" y1="243.10" x2="469.71" y2="234.94" stroke="#566879" stroke-width="36.60" stroke-linecap="round"/><line x1="469.71" y1="234.94" x2="468.69" y2="225.88" stroke="#566879" stroke-width="36.60" stroke-linecap="round"/><line x1="468.69" y1="225.88" x2="467.91" y2="216.04" stroke="#566879" stroke-width="36.60" stroke-linecap="round"/><line x1="467.91" y1="216.04" x2="467.43" y2="205.54" stroke="#566879" stroke-width="36.60" stroke-linecap="round"/><line x1="467.43" y1="205.54" x2="467.25" y2="194.44" stroke="#566879" stroke-width="36.60" stroke-linecap="round"/><line x1="467.25" y1="194.44" x2="467.49" y2="182.80" stroke="#566879" stroke-width="36.60" stroke-linecap="round"/><line x1="467.49" y1="182.80" x2="468.21" y2="170.80" stroke="#566879" stroke-width="36.60" stroke-linecap="round"/><line x1="468.21" y1="170.80" x2="469.35" y2="158.44" stroke="#566879" stroke-width="36.60" stroke-linecap="round"/><line x1="469.35" y1="158.44" x2="470.97" y2="145.84" stroke="#566879" stroke-width="36.60" stroke-linecap="round"/><line x1="470.97" y1="145.84" x2="473.07" y2="133.12" stroke="#566879" stroke-width="36.60" stroke-linecap="round"/><line x1="473.07" y1="133.12" x2="475.65" y2="120.34" stroke="#566879" stroke-width="36.60" stroke-linecap="round"/><line x1="475.65" y1="120.34" x2="478.71" y2="107.50" stroke="#566879" stroke-width="36.60" stroke-linecap="round"/><line x1="478.71" y1="107.50" x2="482.25" y2="94.72" stroke="#566879" stroke-width="36.60" stroke-linecap="round"/><line x1="482.25" y1="94.72" x2="486.33" y2="82.00" stroke="#566879" stroke-width="36.60" stroke-linecap="round"/><line x1="486.33" y1="82.00" x2="490.77" y2="69.40" stroke="#566879" stroke-width="36.60" stroke-linecap="round"/><line x1="490.77" y1="69.40" x2="495.75" y2="56.92" stroke="#566879" stroke-width="36.60" stroke-linecap="round"/><line x1="495.75" y1="56.92" x2="501.09" y2="44.56" stroke="#566879" stroke-width="36.60" stroke-linecap="round"/><line x1="501.09" y1="44.56" x2="506.79" y2="32.38" stroke="#566879" stroke-width="36.60" stroke-linecap="round"/><line x1="506.79" y1="32.38" x2="512.91" y2="20.38" stroke="#566879" stroke-width="36.60" stroke-linecap="round"/><line x1="512.91" y1="20.38" x2="519.33" y2="8.50" stroke="#566879" stroke-width="36.60" stroke-linecap="round"/><line x1="519.33" y1="8.50" x2="526.05" y2="-3.08" stroke="#566879" stroke-width="36.60" stroke-linecap="round"/><line x1="522.33" y1="-9.32" x2="519.51" y2="4.00" stroke="#566879" stroke-width="36.60" stroke-linecap="round"/><line x1="519.51" y1="4.00" x2="516.15" y2="17.26" stroke="#566879" stroke-width="36.60" stroke-linecap="round"/><line x1="516.15" y1="17.26" x2="511.89" y2="30.28" stroke="#566879" stroke-width="36.60" stroke-linecap="round"/><line x1="511.89" y1="30.28" x2="506.55" y2="43.00" stroke="#566879" stroke-width="36.60" stroke-linecap="round"/><line x1="506.55" y1="43.00" x2="500.19" y2="55.42" stroke="#566879" stroke-width="36.60" stroke-linecap="round"/><line x1="500.19" y1="55.42" x2="493.35" y2="67.78" stroke="#566879" stroke-width="36.60" stroke-linecap="round"/><line x1="493.35" y1="67.78" x2="486.69" y2="80.20" stroke="#566879" stroke-width="36.60" stroke-linecap="round"/><line x1="486.69" y1="80.20" x2="480.99" y2="92.92" stroke="#566879" stroke-width="36.60" stroke-linecap="round"/><line x1="480.99" y1="92.92" x2="476.79" y2="106.24" stroke="#566879" stroke-width="36.60" stroke-linecap="round"/><line x1="476.79" y1="106.24" x2="474.39" y2="120.10" stroke="#566879" stroke-width="36.60" stroke-linecap="round"/><line x1="474.39" y1="120.10" x2="474.09" y2="134.32" stroke="#566879" stroke-width="36.60" stroke-linecap="round"/><line x1="474.09" y1="134.32" x2="475.89" y2="151.18" stroke="#566879" stroke-width="36.60" stroke-linecap="round"/><line x1="475.89" y1="151.18" x2="480.87" y2="170.26" stroke="#566879" stroke-width="36.60" stroke-linecap="round"/><line x1="480.87" y1="170.26" x2="491.61" y2="190.00" stroke="#566879" stroke-width="36.60" stroke-linecap="round"/><line x1="491.61" y1="190.00" x2="501.99" y2="212.98" stroke="#566879" stroke-width="36.60" stroke-linecap="round"/><line x1="501.99" y1="212.98" x2="503.25" y2="238.18" stroke="#566879" stroke-width="36.60" stroke-linecap="round"/><line x1="503.25" y1="238.18" x2="500.67" y2="251.68" stroke="#566879" stroke-width="36.60" stroke-linecap="round"/><line x1="-5.49" y1="265.84" x2="2.79" y2="264.88" stroke="#566879" stroke-width="25.92" stroke-linecap="round"/><line x1="2.79" y1="264.88" x2="9.93" y2="262.42" stroke="#566879" stroke-width="25.92" stroke-linecap="round"/><line x1="9.93" y1="262.42" x2="15.75" y2="258.28" stroke="#566879" stroke-width="25.92" stroke-linecap="round"/><line x1="15.75" y1="258.28" x2="20.13" y2="252.52" stroke="#566879" stroke-width="25.92" stroke-linecap="round"/><line x1="20.13" y1="252.52" x2="23.01" y2="245.20" stroke="#566879" stroke-width="25.92" stroke-linecap="round"/><line x1="23.01" y1="245.20" x2="24.33" y2="236.50" stroke="#566879" stroke-width="25.92" stroke-linecap="round"/><line x1="24.33" y1="236.50" x2="24.15" y2="226.60" stroke="#566879" stroke-width="25.92" stroke-linecap="round"/><line x1="24.15" y1="226.60" x2="22.71" y2="215.68" stroke="#566879" stroke-width="25.92" stroke-linecap="round"/><line x1="22.71" y1="215.68" x2="20.13" y2="203.98" stroke="#566879" stroke-width="25.92" stroke-linecap="round"/><line x1="20.13" y1="203.98" x2="16.83" y2="191.74" stroke="#566879" stroke-width="25.92" stroke-linecap="round"/><line x1="16.83" y1="191.74" x2="13.23" y2="179.08" stroke="#566879" stroke-width="25.92" stroke-linecap="round"/><line x1="13.23" y1="179.08" x2="9.69" y2="166.18" stroke="#566879" stroke-width="25.92" stroke-linecap="round"/><line x1="9.69" y1="166.18" x2="6.57" y2="153.04" stroke="#566879" stroke-width="25.92" stroke-linecap="round"/><line x1="6.57" y1="153.04" x2="4.29" y2="139.84" stroke="#566879" stroke-width="25.92" stroke-linecap="round"/><line x1="4.29" y1="139.84" x2="3.03" y2="126.58" stroke="#566879" stroke-width="25.92" stroke-linecap="round"/><line x1="3.03" y1="126.58" x2="3.09" y2="113.38" stroke="#566879" stroke-width="25.92" stroke-linecap="round"/><line x1="3.09" y1="113.38" x2="4.47" y2="100.24" stroke="#566879" stroke-width="25.92" stroke-linecap="round"/><line x1="4.47" y1="100.24" x2="7.29" y2="87.34" stroke="#566879" stroke-width="25.92" stroke-linecap="round"/><line x1="7.29" y1="87.34" x2="11.55" y2="74.68" stroke="#566879" stroke-width="25.92" stroke-linecap="round"/><line x1="11.55" y1="74.68" x2="17.19" y2="62.38" stroke="#566879" stroke-width="25.92" stroke-linecap="round"/><line x1="17.19" y1="62.38" x2="24.03" y2="50.38" stroke="#566879" stroke-width="25.92" stroke-linecap="round"/><line x1="24.03" y1="50.38" x2="31.89" y2="38.80" stroke="#566879" stroke-width="25.92" stroke-linecap="round"/><line x1="31.89" y1="38.80" x2="40.47" y2="27.52" stroke="#566879" stroke-width="25.92" stroke-linecap="round"/><line x1="40.47" y1="27.52" x2="49.53" y2="16.54" stroke="#566879" stroke-width="25.92" stroke-linecap="round"/><line x1="49.53" y1="16.54" x2="58.95" y2="5.80" stroke="#566879" stroke-width="25.92" stroke-linecap="round"/><line x1="58.95" y1="5.80" x2="68.61" y2="-4.52" stroke="#566879" stroke-width="25.92" stroke-linecap="round"/><line x1="180.87" y1="-3.38" x2="174.03" y2="20.86" stroke="#566879" stroke-width="25.92" stroke-linecap="round"/><line x1="174.03" y1="20.86" x2="168.45" y2="45.46" stroke="#566879" stroke-width="25.92" stroke-linecap="round"/><line x1="168.45" y1="45.46" x2="175.83" y2="65.26" stroke="#566879" stroke-width="25.92" stroke-linecap="round"/><polyline points="341.4,241.8 343.9,244.7 346.1,247.3 348.6,250.2 350.7,253.0 353.1,257.6 353.9,259.9 355.4,260.7 357.3,263.8 359.1,266.6 361.0,269.6 362.8,272.5 364.8,275.6 368.7,282.1 370.1,285.4 371.6,288.8 373.1,292.2 374.5,295.3 376.2,299.3 377.9,305.7 379.2,308.7 380.8,312.3 382.0,314.9 383.0,318.6 383.4,322.7 383.9,328.8 383.2,333.2 382.1,337.1 380.1,342.0 377.7,346.1 374.2,350.9 372.2,353.8 364.6,358.9 360.3,360.9 354.6,362.3 352.0,362.5 349.3,362.9 345.6,362.5 341.0,361.3 336.8,359.5 332.9,357.5 327.2,355.4 323.4,351.9 320.7,348.5 318.3,344.7 316.8,341.7 315.4,338.1 314.1,335.2 314.3,336.3 312.6,332.3 311.5,329.9 310.7,328.0 308.8,323.7 307.2,320.1 305.9,317.3 302.7,309.9 301.9,306.7 300.8,303.0 300.0,300.0" fill="none" stroke="#ff6577" stroke-width="4"/><circle cx="300" cy="300" r="10.1" fill="#fff"/><path d="M300 300 l-5.3 -24.4" stroke="#fff" stroke-width="3"/><text x="12" y="25" fill="#fff" font-size="16">빨강: 실제 이동 · 청록: 대안 모델 경로</text></svg>